<svg xmlns="http://www.w3.org/2000/svg" xmlns:xlink="http://www.w3.org/1999/xlink" width="500" zoomAndPan="magnify" viewBox="0 0 375 74.999997" height="100" preserveAspectRatio="xMidYMid meet" version="1.0"><defs><clipPath id="c1cea27e95"><path d="M 55 50 L 72 50 L 72 67.59375 L 55 67.59375 Z M 55 50 " clip-rule="nonzero"/></clipPath><clipPath id="73599be3f6"><path d="M 303 50 L 320 50 L 320 67.59375 L 303 67.59375 Z M 303 50 " clip-rule="nonzero"/></clipPath><clipPath id="cabe7aa9a6"><path d="M 170 24.84375 L 202 24.84375 L 202 53 L 170 53 Z M 170 24.84375 " clip-rule="nonzero"/></clipPath></defs><rect x="-37.5" width="450" fill="#ffffff" y="-7.5" height="89.999996" fill-opacity="1"/><rect x="-37.5" width="450" fill="#ffffff" y="-7.5" height="89.999996" fill-opacity="1"/><path fill="#000000" d="M 1.46875 53.21875 C 1.09375 53.5 0.5625 53.421875 0.28125 53.046875 C 0.00390625 52.675781 0.078125 52.148438 0.445312 51.863281 L 0.441406 51.863281 C 5.445312 48.007812 10.445312 44.148438 17.457031 42.667969 C 20.84375 41.949219 24.679688 41.800781 28.726562 42.117188 C 33 42.453125 37.523438 43.3125 42.027344 44.578125 C 46.777344 45.914062 51.492188 47.703125 55.945312 49.390625 C 59.621094 50.785156 63.117188 52.109375 66.28125 53.046875 C 69.742188 54.074219 72.824219 54.640625 75.730469 54.816406 C 78.621094 54.996094 81.347656 54.78125 84.105469 54.242188 C 86.878906 53.703125 89.679688 52.835938 92.503906 51.734375 C 95.351562 50.625 98.222656 49.277344 101.113281 47.792969 C 102.078125 47.296875 103.21875 46.691406 104.375 46.078125 C 109.222656 43.503906 114.285156 40.816406 120.296875 39.183594 C 123.980469 38.183594 128.015625 37.585938 132.207031 37.398438 C 136.398438 37.210938 140.738281 37.429688 145.035156 38.0625 C 153.589844 39.324219 161.964844 42.226562 170.34375 45.128906 L 170.382812 45.140625 C 170.820312 45.316406 171.03125 45.8125 170.855469 46.246094 C 170.683594 46.683594 170.1875 46.898438 169.75 46.722656 C 161.472656 43.855469 153.195312 40.992188 144.789062 39.753906 C 140.589844 39.132812 136.355469 38.914062 132.277344 39.101562 C 128.222656 39.28125 124.316406 39.863281 120.738281 40.832031 C 114.90625 42.414062 109.933594 45.058594 105.164062 47.585938 C 104.121094 48.140625 103.089844 48.6875 101.886719 49.308594 C 98.941406 50.820312 96.019531 52.191406 93.117188 53.320312 C 90.195312 54.460938 87.296875 55.359375 84.421875 55.917969 C 81.535156 56.480469 78.675781 56.703125 75.628906 56.519531 C 72.59375 56.335938 69.390625 55.746094 65.800781 54.683594 C 62.570312 53.726562 59.050781 52.390625 55.347656 50.988281 C 50.929688 49.3125 46.253906 47.539062 41.570312 46.21875 C 37.175781 44.984375 32.757812 44.144531 28.59375 43.820312 C 24.695312 43.511719 21.023438 43.652344 17.800781 44.335938 C 11.175781 45.738281 6.328125 49.472656 1.480469 53.210938 Z M 1.46875 53.21875 " fill-opacity="1" fill-rule="nonzero"/><path fill="#000000" d="M 38.328125 28.347656 C 37.542969 32.0625 35.699219 35.148438 32.800781 37.605469 C 30.003906 39.976562 26.226562 41.753906 21.46875 42.941406 L 21.300781 43.070312 C 21.121094 43.207031 20.859375 43.171875 20.71875 42.988281 C 20.714844 42.980469 20.707031 42.972656 20.699219 42.960938 C 20.632812 42.90625 20.582031 42.828125 20.558594 42.738281 C 20.539062 42.644531 20.546875 42.550781 20.582031 42.46875 C 22.492188 37.925781 24.882812 34.4375 27.761719 32 C 30.65625 29.546875 34.03125 28.160156 37.886719 27.847656 C 38.113281 27.828125 38.316406 27.996094 38.332031 28.226562 C 38.335938 28.265625 38.335938 28.308594 38.328125 28.347656 Z M 21.878906 41.585938 C 24.742188 39.390625 27.203125 37.402344 29.253906 35.625 C 31.5625 33.625 33.375 31.878906 34.6875 30.386719 C 34.839844 30.214844 35.101562 30.203125 35.273438 30.351562 C 35.445312 30.503906 35.460938 30.769531 35.308594 30.941406 C 33.976562 32.453125 32.140625 34.222656 29.796875 36.25 C 27.921875 37.875 25.726562 39.660156 23.222656 41.601562 C 26.945312 40.46875 29.957031 38.929688 32.265625 36.972656 C 34.871094 34.761719 36.582031 32.011719 37.386719 28.730469 C 33.941406 29.113281 30.910156 30.414062 28.296875 32.632812 C 25.777344 34.765625 23.640625 37.75 21.878906 41.585938 Z M 21.878906 41.585938 " fill-opacity="1" fill-rule="nonzero"/><path fill="#000000" d="M 63.503906 37.742188 C 61.488281 40.960938 58.699219 43.222656 55.132812 44.53125 C 51.691406 45.792969 47.535156 46.160156 42.660156 45.632812 L 42.460938 45.695312 C 42.242188 45.761719 42.007812 45.636719 41.941406 45.417969 C 41.9375 45.40625 41.933594 45.394531 41.933594 45.382812 C 41.890625 45.308594 41.867188 45.21875 41.878906 45.125 C 41.890625 45.03125 41.929688 44.945312 41.992188 44.882812 C 45.34375 41.277344 48.789062 38.824219 52.328125 37.527344 C 55.886719 36.222656 59.53125 36.089844 63.261719 37.121094 C 63.480469 37.183594 63.613281 37.410156 63.550781 37.632812 C 63.539062 37.671875 63.523438 37.710938 63.503906 37.742188 Z M 43.511719 44.5 C 46.957031 43.425781 49.949219 42.40625 52.484375 41.445312 C 55.339844 40.367188 57.636719 39.355469 59.382812 38.40625 C 59.585938 38.296875 59.835938 38.371094 59.945312 38.574219 C 60.054688 38.777344 59.976562 39.03125 59.777344 39.136719 C 58.007812 40.097656 55.671875 41.125 52.78125 42.222656 C 50.457031 43.101562 47.789062 44.019531 44.769531 44.976562 C 48.648438 45.199219 52.007812 44.792969 54.847656 43.753906 C 58.058594 42.574219 60.601562 40.585938 62.488281 37.78125 C 59.121094 36.953125 55.828125 37.128906 52.613281 38.308594 C 49.515625 39.441406 46.480469 41.507812 43.511719 44.5 Z M 43.511719 44.5 " fill-opacity="1" fill-rule="nonzero"/><path fill="#000000" d="M 88.214844 44.625 C 86.59375 48.058594 84.089844 50.632812 80.703125 52.355469 C 77.433594 54.011719 73.351562 54.867188 68.449219 54.921875 L 68.253906 55.007812 C 68.046875 55.101562 67.800781 55.003906 67.707031 54.796875 C 67.703125 54.785156 67.699219 54.773438 67.695312 54.761719 C 67.640625 54.691406 67.609375 54.605469 67.609375 54.511719 C 67.609375 54.417969 67.640625 54.328125 67.695312 54.257812 C 70.601562 50.28125 73.730469 47.441406 77.089844 45.734375 C 80.472656 44.015625 84.074219 43.449219 87.902344 44.035156 C 88.128906 44.070312 88.28125 44.28125 88.25 44.507812 C 88.242188 44.550781 88.230469 44.589844 88.214844 44.625 Z M 69.15625 53.695312 C 72.453125 52.222656 75.304688 50.859375 77.710938 49.605469 C 80.414062 48.195312 82.582031 46.917969 84.203125 45.769531 C 84.390625 45.636719 84.648438 45.683594 84.78125 45.871094 C 84.910156 46.058594 84.867188 46.316406 84.679688 46.449219 C 83.035156 47.613281 80.839844 48.910156 78.09375 50.339844 C 75.890625 51.488281 73.347656 52.714844 70.460938 54.019531 C 74.34375 53.785156 77.632812 52.984375 80.328125 51.613281 C 83.375 50.066406 85.671875 47.789062 87.214844 44.78125 C 83.769531 44.355469 80.523438 44.921875 77.464844 46.472656 C 74.523438 47.964844 71.753906 50.375 69.15625 53.695312 Z M 69.15625 53.695312 " fill-opacity="1" fill-rule="nonzero"/><path fill="#000000" d="M 117.492188 26.878906 C 118.011719 30.640625 117.324219 34.171875 115.429688 37.46875 C 113.601562 40.648438 110.648438 43.605469 106.574219 46.339844 L 106.460938 46.519531 C 106.335938 46.710938 106.078125 46.765625 105.886719 46.640625 C 105.875 46.632812 105.867188 46.625 105.859375 46.621094 C 105.773438 46.589844 105.703125 46.535156 105.648438 46.457031 C 105.597656 46.375 105.574219 46.285156 105.582031 46.199219 C 105.839844 41.277344 106.910156 37.179688 108.789062 33.910156 C 110.683594 30.617188 113.390625 28.167969 116.910156 26.558594 C 117.117188 26.464844 117.363281 26.554688 117.460938 26.765625 C 117.476562 26.800781 117.488281 26.839844 117.492188 26.878906 Z M 106.5 44.925781 C 108.453125 41.882812 110.09375 39.179688 111.421875 36.808594 C 112.917969 34.144531 114.03125 31.886719 114.761719 30.039062 C 114.847656 29.824219 115.085938 29.71875 115.300781 29.804688 C 115.511719 29.890625 115.617188 30.132812 115.53125 30.347656 C 114.789062 32.222656 113.660156 34.511719 112.144531 37.214844 C 110.929688 39.382812 109.46875 41.804688 107.769531 44.480469 C 110.886719 42.15625 113.203125 39.679688 114.710938 37.054688 C 116.414062 34.085938 117.09375 30.921875 116.738281 27.558594 C 113.628906 29.09375 111.21875 31.347656 109.507812 34.320312 C 107.863281 37.183594 106.859375 40.71875 106.5 44.925781 Z M 106.5 44.925781 " fill-opacity="1" fill-rule="nonzero"/><path fill="#000000" d="M 153.835938 26.484375 C 152.585938 30.066406 150.367188 32.894531 147.179688 34.960938 C 144.105469 36.957031 140.132812 38.238281 135.261719 38.808594 L 135.078125 38.914062 C 134.882812 39.03125 134.628906 38.960938 134.515625 38.761719 C 134.507812 38.75 134.5 38.742188 134.496094 38.730469 C 134.4375 38.667969 134.394531 38.582031 134.386719 38.488281 C 134.375 38.394531 134.398438 38.304688 134.445312 38.226562 C 136.914062 33.964844 139.730469 30.808594 142.894531 28.757812 C 146.074219 26.695312 149.597656 25.75 153.464844 25.933594 C 153.691406 25.941406 153.871094 26.136719 153.859375 26.363281 C 153.859375 26.40625 153.851562 26.445312 153.835938 26.484375 Z M 135.839844 37.515625 C 138.960938 35.703125 141.652344 34.046875 143.914062 32.542969 C 146.457031 30.859375 148.476562 29.359375 149.96875 28.042969 C 150.140625 27.894531 150.402344 27.910156 150.554688 28.085938 C 150.703125 28.257812 150.6875 28.519531 150.511719 28.671875 C 149 30.003906 146.953125 31.523438 144.375 33.234375 C 142.304688 34.605469 139.902344 36.097656 137.171875 37.699219 C 141.007812 37.058594 144.191406 35.910156 146.730469 34.265625 C 149.597656 32.40625 151.640625 29.898438 152.855469 26.742188 C 149.390625 26.6875 146.21875 27.589844 143.34375 29.457031 C 140.574219 31.25 138.074219 33.9375 135.839844 37.515625 Z M 135.839844 37.515625 " fill-opacity="1" fill-rule="nonzero"/><path fill="#000000" d="M 46.671875 59.785156 C 46.375 56.003906 44.945312 52.703125 42.386719 49.890625 C 39.921875 47.175781 36.40625 44.921875 31.84375 43.128906 L 31.691406 42.980469 C 31.527344 42.820312 31.265625 42.820312 31.105469 42.984375 C 31.09375 42.992188 31.085938 43.003906 31.078125 43.011719 C 31.007812 43.058594 30.945312 43.128906 30.914062 43.214844 C 30.878906 43.304688 30.875 43.398438 30.902344 43.480469 C 32.210938 48.234375 34.128906 52.003906 36.667969 54.796875 C 39.21875 57.605469 42.386719 59.414062 46.171875 60.226562 C 46.394531 60.273438 46.617188 60.132812 46.664062 59.90625 C 46.671875 59.867188 46.675781 59.824219 46.671875 59.785156 Z M 32.070312 44.527344 C 34.628906 47.078125 36.808594 49.367188 38.617188 51.394531 C 40.648438 53.675781 42.21875 55.640625 43.328125 57.289062 C 43.457031 57.480469 43.714844 57.53125 43.902344 57.402344 C 44.09375 57.273438 44.140625 57.015625 44.015625 56.824219 C 42.886719 55.152344 41.296875 53.15625 39.234375 50.84375 C 37.582031 48.988281 35.640625 46.9375 33.40625 44.6875 C 36.949219 46.289062 39.738281 48.210938 41.773438 50.449219 C 44.078125 52.976562 45.414062 55.925781 45.792969 59.285156 C 42.425781 58.457031 39.585938 56.773438 37.277344 54.238281 C 35.058594 51.796875 33.324219 48.558594 32.070312 44.527344 Z M 32.070312 44.527344 " fill-opacity="1" fill-rule="nonzero"/><g clip-path="url(#c1cea27e95)"><path fill="#000000" d="M 71.238281 67.09375 C 70.9375 63.308594 69.507812 60.011719 66.953125 57.195312 C 64.484375 54.484375 60.96875 52.230469 56.40625 50.4375 L 56.253906 50.289062 C 56.09375 50.125 55.828125 50.128906 55.667969 50.292969 C 55.660156 50.300781 55.652344 50.308594 55.644531 50.316406 C 55.570312 50.363281 55.511719 50.433594 55.476562 50.523438 C 55.441406 50.609375 55.441406 50.703125 55.464844 50.789062 C 56.773438 55.542969 58.695312 59.3125 61.230469 62.101562 C 63.785156 64.910156 66.953125 66.722656 70.734375 67.535156 C 70.960938 67.582031 71.179688 67.4375 71.226562 67.214844 C 71.238281 67.175781 71.238281 67.132812 71.238281 67.09375 Z M 56.632812 51.835938 C 59.191406 54.382812 61.375 56.671875 63.179688 58.703125 C 65.210938 60.984375 66.78125 62.949219 67.894531 64.597656 C 68.019531 64.789062 68.277344 64.835938 68.46875 64.707031 C 68.65625 64.578125 68.707031 64.320312 68.578125 64.132812 C 67.453125 62.457031 65.859375 60.464844 63.800781 58.152344 C 62.148438 56.296875 60.203125 54.246094 57.96875 51.996094 C 61.515625 53.597656 64.304688 55.515625 66.339844 57.753906 C 68.640625 60.285156 69.980469 63.234375 70.355469 66.59375 C 66.988281 65.765625 64.152344 64.082031 61.84375 61.542969 C 59.625 59.101562 57.886719 55.867188 56.632812 51.835938 Z M 56.632812 51.835938 " fill-opacity="1" fill-rule="nonzero"/></g><path fill="#000000" d="M 118.859375 54.359375 C 116.238281 51.617188 113.046875 49.972656 109.292969 49.417969 C 105.667969 48.878906 101.523438 49.367188 96.855469 50.875 L 96.648438 50.855469 C 96.417969 50.832031 96.214844 51.003906 96.195312 51.230469 C 96.191406 51.242188 96.191406 51.253906 96.191406 51.265625 C 96.164062 51.347656 96.160156 51.441406 96.191406 51.53125 C 96.222656 51.621094 96.277344 51.695312 96.351562 51.742188 C 100.367188 54.59375 104.234375 56.292969 107.960938 56.84375 C 111.710938 57.398438 115.308594 56.789062 118.75 55.015625 C 118.953125 54.910156 119.035156 54.660156 118.929688 54.457031 C 118.910156 54.417969 118.886719 54.386719 118.859375 54.359375 Z M 97.917969 51.8125 C 101.507812 52.164062 104.644531 52.550781 107.324219 52.972656 C 110.335938 53.449219 112.792969 53.976562 114.695312 54.546875 C 114.914062 54.613281 115.144531 54.488281 115.210938 54.269531 C 115.273438 54.050781 115.148438 53.816406 114.929688 53.753906 C 113.003906 53.171875 110.511719 52.640625 107.453125 52.15625 C 105.003906 51.769531 102.203125 51.414062 99.050781 51.089844 C 102.808594 50.078125 106.179688 49.796875 109.167969 50.238281 C 112.550781 50.734375 115.445312 52.167969 117.863281 54.53125 C 114.734375 56.023438 111.472656 56.523438 108.082031 56.023438 C 104.820312 55.539062 101.433594 54.136719 97.917969 51.8125 Z M 97.917969 51.8125 " fill-opacity="1" fill-rule="nonzero"/><path fill="#000000" d="M 141.703125 53.128906 C 140.730469 49.460938 138.734375 46.472656 135.710938 44.167969 C 132.796875 41.945312 128.933594 40.363281 124.121094 39.421875 L 123.945312 39.304688 C 123.757812 39.171875 123.5 39.222656 123.371094 39.414062 C 123.363281 39.421875 123.355469 39.433594 123.351562 39.445312 C 123.285156 39.503906 123.238281 39.582031 123.222656 39.675781 C 123.207031 39.769531 123.21875 39.859375 123.261719 39.9375 C 125.398438 44.378906 127.96875 47.738281 130.964844 50.027344 C 133.980469 52.328125 137.421875 53.535156 141.292969 53.652344 C 141.519531 53.660156 141.710938 53.480469 141.71875 53.25 C 141.71875 53.207031 141.714844 53.167969 141.703125 53.128906 Z M 124.597656 40.757812 C 127.574219 42.804688 130.128906 44.660156 132.269531 46.332031 C 134.679688 48.207031 136.578125 49.855469 137.964844 51.277344 C 138.125 51.441406 138.390625 51.445312 138.550781 51.285156 C 138.714844 51.121094 138.714844 50.859375 138.554688 50.695312 C 137.148438 49.253906 135.222656 47.578125 132.78125 45.675781 C 130.820312 44.148438 128.542969 42.480469 125.941406 40.671875 C 129.714844 41.609375 132.804688 42.992188 135.207031 44.828125 C 137.925781 46.902344 139.773438 49.558594 140.746094 52.796875 C 137.285156 52.589844 134.191406 51.445312 131.464844 49.367188 C 128.84375 47.367188 126.554688 44.496094 124.597656 40.757812 Z M 124.597656 40.757812 " fill-opacity="1" fill-rule="nonzero"/><path fill="#000000" d="M 21.109375 42.386719 C 20.804688 42.269531 20.457031 42.425781 20.339844 42.734375 C 20.222656 43.042969 20.378906 43.386719 20.6875 43.503906 L 20.726562 43.519531 C 22.234375 44.121094 23.738281 44.730469 25.035156 45.867188 C 25.695312 46.441406 26.316406 47.160156 26.914062 47.957031 C 27.550781 48.789062 28.136719 49.664062 28.71875 50.539062 C 28.902344 50.8125 29.273438 50.882812 29.542969 50.699219 C 29.816406 50.519531 29.890625 50.148438 29.707031 49.875 C 29.09375 48.957031 28.476562 48.039062 27.863281 47.230469 C 27.21875 46.378906 26.546875 45.597656 25.816406 44.964844 C 24.375 43.703125 22.773438 43.054688 21.167969 42.414062 C 21.148438 42.402344 21.128906 42.394531 21.109375 42.386719 Z M 21.109375 42.386719 " fill-opacity="1" fill-rule="nonzero"/><path fill="#000000" d="M 43.320312 45.203125 C 43.039062 45.03125 42.671875 45.117188 42.5 45.398438 C 42.324219 45.679688 42.414062 46.046875 42.691406 46.222656 L 42.730469 46.242188 C 44.097656 47.121094 45.460938 48 46.523438 49.359375 C 47.0625 50.046875 47.535156 50.871094 47.976562 51.765625 C 48.445312 52.707031 48.855469 53.675781 49.265625 54.644531 C 49.394531 54.945312 49.742188 55.085938 50.046875 54.957031 C 50.347656 54.828125 50.488281 54.480469 50.359375 54.175781 C 49.925781 53.160156 49.496094 52.144531 49.042969 51.234375 C 48.570312 50.273438 48.054688 49.382812 47.460938 48.621094 C 46.28125 47.113281 44.828125 46.171875 43.371094 45.238281 C 43.355469 45.226562 43.339844 45.214844 43.320312 45.203125 Z M 43.320312 45.203125 " fill-opacity="1" fill-rule="nonzero"/><path fill="#000000" d="M 71.148438 54.40625 C 70.824219 54.339844 70.511719 54.550781 70.445312 54.875 C 70.382812 55.195312 70.589844 55.511719 70.914062 55.578125 L 70.957031 55.582031 C 72.542969 55.925781 74.128906 56.277344 75.597656 57.179688 C 76.339844 57.636719 77.074219 58.242188 77.796875 58.925781 C 78.558594 59.644531 79.28125 60.40625 80.007812 61.171875 C 80.230469 61.410156 80.605469 61.421875 80.84375 61.195312 C 81.082031 60.96875 81.09375 60.59375 80.867188 60.351562 C 80.109375 59.550781 79.351562 58.75 78.613281 58.054688 C 77.835938 57.320312 77.042969 56.664062 76.21875 56.160156 C 74.585938 55.15625 72.898438 54.785156 71.210938 54.417969 C 71.191406 54.414062 71.167969 54.410156 71.148438 54.40625 Z M 71.148438 54.40625 " fill-opacity="1" fill-rule="nonzero"/><path fill="#000000" d="M 109.5625 43.882812 C 109.234375 43.914062 108.996094 44.207031 109.027344 44.539062 C 109.0625 44.867188 109.351562 45.105469 109.679688 45.070312 L 109.722656 45.066406 C 111.339844 44.929688 112.957031 44.796875 114.625 45.226562 C 115.472656 45.449219 116.347656 45.8125 117.238281 46.253906 C 118.179688 46.71875 119.09375 47.234375 120.007812 47.753906 C 120.292969 47.914062 120.65625 47.816406 120.816406 47.527344 C 120.980469 47.242188 120.878906 46.878906 120.59375 46.71875 C 119.632812 46.171875 118.675781 45.628906 117.765625 45.179688 C 116.804688 44.707031 115.855469 44.3125 114.921875 44.070312 C 113.070312 43.59375 111.34375 43.730469 109.625 43.878906 C 109.605469 43.878906 109.582031 43.878906 109.5625 43.882812 Z M 109.5625 43.882812 " fill-opacity="1" fill-rule="nonzero"/><path fill="#000000" d="M 124.195312 39.21875 C 123.914062 39.390625 123.546875 39.300781 123.375 39.019531 C 123.203125 38.738281 123.292969 38.367188 123.574219 38.195312 L 123.609375 38.175781 C 124.980469 37.308594 126.351562 36.433594 127.421875 35.078125 C 127.964844 34.394531 128.441406 33.570312 128.886719 32.683594 C 129.359375 31.742188 129.773438 30.777344 130.191406 29.8125 C 130.320312 29.507812 130.671875 29.371094 130.972656 29.5 C 131.273438 29.628906 131.410156 29.980469 131.28125 30.28125 C 130.84375 31.296875 130.40625 32.3125 129.953125 33.21875 C 129.472656 34.175781 128.953125 35.066406 128.351562 35.824219 C 127.164062 37.328125 125.707031 38.257812 124.246094 39.183594 C 124.230469 39.195312 124.214844 39.207031 124.195312 39.21875 Z M 124.195312 39.21875 " fill-opacity="1" fill-rule="nonzero"/><path fill="#000000" d="M 56.628906 50.96875 C 56.300781 50.941406 56.058594 50.648438 56.089844 50.320312 C 56.117188 49.992188 56.40625 49.75 56.738281 49.777344 L 56.777344 49.785156 C 58.398438 49.90625 60.015625 50.019531 61.679688 49.574219 C 62.523438 49.347656 63.394531 48.972656 64.285156 48.523438 C 65.21875 48.054688 66.128906 47.523438 67.035156 46.996094 C 67.320312 46.832031 67.683594 46.929688 67.847656 47.214844 C 68.011719 47.5 67.914062 47.863281 67.632812 48.027344 C 66.679688 48.582031 65.722656 49.132812 64.816406 49.589844 C 63.863281 50.074219 62.917969 50.476562 61.984375 50.730469 C 60.136719 51.222656 58.414062 51.101562 56.691406 50.972656 C 56.671875 50.972656 56.648438 50.972656 56.628906 50.96875 Z M 56.628906 50.96875 " fill-opacity="1" fill-rule="nonzero"/><path fill="#000000" d="M 30.007812 43.710938 C 29.683594 43.746094 29.386719 43.507812 29.351562 43.179688 C 29.316406 42.851562 29.554688 42.558594 29.878906 42.519531 L 29.925781 42.519531 C 31.535156 42.316406 33.140625 42.109375 34.683594 41.339844 C 35.46875 40.953125 36.25 40.410156 37.03125 39.796875 C 37.855469 39.148438 38.640625 38.449219 39.429688 37.753906 C 39.675781 37.535156 40.050781 37.558594 40.265625 37.804688 C 40.484375 38.050781 40.460938 38.429688 40.214844 38.644531 C 39.390625 39.378906 38.5625 40.109375 37.765625 40.734375 C 36.925781 41.398438 36.078125 41.980469 35.214844 42.414062 C 33.5 43.265625 31.785156 43.488281 30.070312 43.699219 C 30.050781 43.707031 30.03125 43.710938 30.007812 43.710938 Z M 30.007812 43.710938 " fill-opacity="1" fill-rule="nonzero"/><path fill="#000000" d="M 96.960938 51.007812 C 96.765625 51.269531 96.390625 51.324219 96.125 51.125 C 95.863281 50.925781 95.8125 50.550781 96.007812 50.289062 L 96.035156 50.253906 C 96.988281 48.9375 97.9375 47.621094 98.433594 45.964844 C 98.683594 45.128906 98.824219 44.1875 98.910156 43.195312 C 99 42.148438 99.03125 41.097656 99.058594 40.042969 C 99.070312 39.714844 99.34375 39.457031 99.671875 39.464844 C 100 39.476562 100.257812 39.75 100.246094 40.078125 C 100.214844 41.183594 100.183594 42.285156 100.097656 43.300781 C 100.003906 44.363281 99.851562 45.386719 99.574219 46.3125 C 99.023438 48.148438 98.011719 49.554688 96.996094 50.957031 C 96.988281 50.972656 96.976562 50.992188 96.960938 51.007812 Z M 96.960938 51.007812 " fill-opacity="1" fill-rule="nonzero"/><path fill="#000000" d="M 41.933594 37.988281 C 41.933594 38.238281 41.886719 38.476562 41.789062 38.703125 C 41.695312 38.933594 41.5625 39.136719 41.386719 39.308594 C 41.210938 39.484375 41.011719 39.621094 40.78125 39.714844 C 40.554688 39.808594 40.316406 39.855469 40.070312 39.855469 C 39.820312 39.855469 39.582031 39.808594 39.355469 39.714844 C 39.125 39.621094 38.925781 39.484375 38.75 39.308594 C 38.574219 39.136719 38.441406 38.933594 38.347656 38.703125 C 38.25 38.476562 38.203125 38.238281 38.203125 37.988281 C 38.203125 37.742188 38.25 37.503906 38.347656 37.273438 C 38.441406 37.046875 38.574219 36.84375 38.75 36.667969 C 38.925781 36.492188 39.125 36.359375 39.355469 36.261719 C 39.582031 36.167969 39.820312 36.121094 40.070312 36.121094 C 40.316406 36.121094 40.554688 36.167969 40.78125 36.261719 C 41.011719 36.359375 41.210938 36.492188 41.386719 36.667969 C 41.5625 36.84375 41.695312 37.046875 41.789062 37.273438 C 41.886719 37.503906 41.933594 37.742188 41.933594 37.988281 Z M 41.933594 37.988281 " fill-opacity="1" fill-rule="nonzero"/><path fill="#000000" d="M 30.960938 50.792969 C 30.960938 51.039062 30.914062 51.277344 30.820312 51.507812 C 30.726562 51.734375 30.589844 51.9375 30.417969 52.113281 C 30.242188 52.289062 30.039062 52.421875 29.8125 52.515625 C 29.582031 52.613281 29.34375 52.660156 29.097656 52.660156 C 28.851562 52.660156 28.613281 52.613281 28.386719 52.515625 C 28.15625 52.421875 27.957031 52.289062 27.78125 52.113281 C 27.605469 51.9375 27.472656 51.734375 27.375 51.507812 C 27.28125 51.277344 27.234375 51.039062 27.234375 50.792969 C 27.234375 50.542969 27.28125 50.304688 27.375 50.078125 C 27.472656 49.847656 27.605469 49.644531 27.78125 49.46875 C 27.957031 49.296875 28.15625 49.160156 28.386719 49.066406 C 28.613281 48.96875 28.851562 48.921875 29.097656 48.921875 C 29.34375 48.921875 29.582031 48.96875 29.8125 49.066406 C 30.039062 49.160156 30.242188 49.296875 30.417969 49.46875 C 30.589844 49.644531 30.726562 49.847656 30.820312 50.078125 C 30.914062 50.304688 30.960938 50.542969 30.960938 50.792969 Z M 30.960938 50.792969 " fill-opacity="1" fill-rule="nonzero"/><path fill="#000000" d="M 51.910156 54.957031 C 51.910156 55.207031 51.863281 55.445312 51.765625 55.671875 C 51.671875 55.902344 51.539062 56.105469 51.363281 56.277344 C 51.1875 56.453125 50.988281 56.589844 50.757812 56.683594 C 50.53125 56.777344 50.292969 56.824219 50.046875 56.824219 C 49.796875 56.824219 49.558594 56.777344 49.332031 56.683594 C 49.105469 56.589844 48.902344 56.453125 48.726562 56.277344 C 48.550781 56.105469 48.417969 55.902344 48.324219 55.671875 C 48.230469 55.445312 48.179688 55.207031 48.179688 54.957031 C 48.179688 54.710938 48.230469 54.472656 48.324219 54.242188 C 48.417969 54.015625 48.550781 53.8125 48.726562 53.636719 C 48.902344 53.460938 49.105469 53.328125 49.332031 53.230469 C 49.558594 53.136719 49.796875 53.089844 50.046875 53.089844 C 50.292969 53.089844 50.53125 53.136719 50.757812 53.230469 C 50.988281 53.328125 51.1875 53.460938 51.363281 53.636719 C 51.539062 53.8125 51.671875 54.015625 51.765625 54.242188 C 51.863281 54.472656 51.910156 54.710938 51.910156 54.957031 Z M 51.910156 54.957031 " fill-opacity="1" fill-rule="nonzero"/><path fill="#000000" d="M 69.773438 47.667969 C 69.773438 47.914062 69.722656 48.152344 69.628906 48.382812 C 69.535156 48.609375 69.402344 48.8125 69.226562 48.988281 C 69.050781 49.164062 68.847656 49.296875 68.621094 49.390625 C 68.394531 49.488281 68.15625 49.535156 67.90625 49.535156 C 67.660156 49.535156 67.421875 49.488281 67.195312 49.390625 C 66.964844 49.296875 66.765625 49.164062 66.589844 48.988281 C 66.414062 48.8125 66.28125 48.609375 66.1875 48.382812 C 66.089844 48.152344 66.042969 47.914062 66.042969 47.667969 C 66.042969 47.417969 66.089844 47.179688 66.1875 46.953125 C 66.28125 46.722656 66.414062 46.519531 66.589844 46.34375 C 66.765625 46.171875 66.964844 46.035156 67.195312 45.941406 C 67.421875 45.84375 67.660156 45.796875 67.90625 45.796875 C 68.15625 45.796875 68.394531 45.84375 68.621094 45.941406 C 68.847656 46.035156 69.050781 46.171875 69.226562 46.34375 C 69.402344 46.519531 69.535156 46.722656 69.628906 46.953125 C 69.722656 47.179688 69.773438 47.417969 69.773438 47.667969 Z M 69.773438 47.667969 " fill-opacity="1" fill-rule="nonzero"/><path fill="#000000" d="M 82.710938 61.195312 C 82.710938 61.441406 82.660156 61.679688 82.566406 61.910156 C 82.472656 62.136719 82.339844 62.339844 82.164062 62.515625 C 81.988281 62.691406 81.785156 62.824219 81.558594 62.921875 C 81.332031 63.015625 81.09375 63.0625 80.84375 63.0625 C 80.597656 63.0625 80.359375 63.015625 80.132812 62.921875 C 79.902344 62.824219 79.703125 62.691406 79.527344 62.515625 C 79.351562 62.339844 79.21875 62.136719 79.125 61.910156 C 79.027344 61.679688 78.980469 61.441406 78.980469 61.195312 C 78.980469 60.945312 79.027344 60.707031 79.125 60.480469 C 79.21875 60.25 79.351562 60.046875 79.527344 59.875 C 79.703125 59.699219 79.902344 59.5625 80.132812 59.46875 C 80.359375 59.375 80.597656 59.328125 80.84375 59.328125 C 81.09375 59.328125 81.332031 59.375 81.558594 59.46875 C 81.785156 59.5625 81.988281 59.699219 82.164062 59.875 C 82.339844 60.046875 82.472656 60.25 82.566406 60.480469 C 82.660156 60.707031 82.710938 60.945312 82.710938 61.195312 Z M 82.710938 61.195312 " fill-opacity="1" fill-rule="nonzero"/><path fill="#000000" d="M 101.535156 39.464844 C 101.535156 39.714844 101.488281 39.953125 101.394531 40.179688 C 101.296875 40.410156 101.164062 40.613281 100.988281 40.789062 C 100.8125 40.960938 100.613281 41.097656 100.382812 41.191406 C 100.15625 41.289062 99.917969 41.335938 99.671875 41.335938 C 99.425781 41.335938 99.1875 41.289062 98.957031 41.191406 C 98.730469 41.097656 98.527344 40.960938 98.351562 40.789062 C 98.179688 40.613281 98.042969 40.410156 97.949219 40.179688 C 97.855469 39.953125 97.808594 39.714844 97.808594 39.464844 C 97.808594 39.21875 97.855469 38.980469 97.949219 38.75 C 98.042969 38.523438 98.179688 38.320312 98.351562 38.144531 C 98.527344 37.96875 98.730469 37.835938 98.957031 37.742188 C 99.1875 37.644531 99.425781 37.597656 99.671875 37.597656 C 99.917969 37.597656 100.15625 37.644531 100.382812 37.742188 C 100.613281 37.835938 100.8125 37.96875 100.988281 38.144531 C 101.164062 38.320312 101.296875 38.523438 101.394531 38.75 C 101.488281 38.980469 101.535156 39.21875 101.535156 39.464844 Z M 101.535156 39.464844 " fill-opacity="1" fill-rule="nonzero"/><path fill="#000000" d="M 122.683594 47.527344 C 122.683594 47.777344 122.632812 48.015625 122.539062 48.242188 C 122.445312 48.472656 122.3125 48.675781 122.136719 48.847656 C 121.960938 49.023438 121.757812 49.160156 121.53125 49.253906 C 121.300781 49.347656 121.066406 49.394531 120.816406 49.394531 C 120.570312 49.394531 120.332031 49.347656 120.105469 49.253906 C 119.875 49.160156 119.675781 49.023438 119.5 48.847656 C 119.324219 48.675781 119.191406 48.472656 119.097656 48.242188 C 119 48.015625 118.953125 47.777344 118.953125 47.527344 C 118.953125 47.28125 119 47.042969 119.097656 46.8125 C 119.191406 46.585938 119.324219 46.382812 119.5 46.207031 C 119.675781 46.03125 119.875 45.898438 120.105469 45.800781 C 120.332031 45.707031 120.570312 45.660156 120.816406 45.660156 C 121.066406 45.660156 121.300781 45.707031 121.53125 45.800781 C 121.757812 45.898438 121.960938 46.03125 122.136719 46.207031 C 122.3125 46.382812 122.445312 46.585938 122.539062 46.8125 C 122.632812 47.042969 122.683594 47.28125 122.683594 47.527344 Z M 122.683594 47.527344 " fill-opacity="1" fill-rule="nonzero"/><path fill="#000000" d="M 132.835938 29.5 C 132.835938 29.746094 132.789062 29.984375 132.695312 30.214844 C 132.597656 30.445312 132.464844 30.644531 132.289062 30.820312 C 132.113281 30.996094 131.914062 31.132812 131.683594 31.226562 C 131.457031 31.320312 131.21875 31.367188 130.972656 31.367188 C 130.726562 31.367188 130.488281 31.320312 130.257812 31.226562 C 130.03125 31.132812 129.828125 30.996094 129.652344 30.820312 C 129.480469 30.644531 129.34375 30.445312 129.25 30.214844 C 129.15625 29.984375 129.109375 29.746094 129.109375 29.5 C 129.109375 29.253906 129.15625 29.015625 129.25 28.785156 C 129.34375 28.554688 129.480469 28.355469 129.652344 28.179688 C 129.828125 28.003906 130.03125 27.871094 130.257812 27.773438 C 130.488281 27.679688 130.726562 27.632812 130.972656 27.632812 C 131.21875 27.632812 131.457031 27.679688 131.683594 27.773438 C 131.914062 27.871094 132.113281 28.003906 132.289062 28.179688 C 132.464844 28.355469 132.597656 28.554688 132.695312 28.785156 C 132.789062 29.015625 132.835938 29.253906 132.835938 29.5 Z M 132.835938 29.5 " fill-opacity="1" fill-rule="nonzero"/><path fill="#000000" d="M 373.542969 53.21875 C 373.917969 53.5 374.449219 53.421875 374.730469 53.046875 C 375.007812 52.675781 374.9375 52.148438 374.570312 51.863281 C 369.566406 48.007812 364.566406 44.148438 357.554688 42.667969 C 354.167969 41.949219 350.332031 41.800781 346.289062 42.117188 C 342.011719 42.453125 337.488281 43.3125 332.984375 44.578125 C 328.234375 45.914062 323.519531 47.703125 319.066406 49.390625 C 315.390625 50.785156 311.894531 52.109375 308.730469 53.046875 C 305.269531 54.074219 302.1875 54.640625 299.28125 54.816406 C 296.390625 54.996094 293.664062 54.78125 290.90625 54.242188 C 288.136719 53.703125 285.332031 52.835938 282.507812 51.734375 C 279.660156 50.625 276.789062 49.277344 273.898438 47.792969 C 272.933594 47.296875 271.792969 46.691406 270.640625 46.078125 C 265.789062 43.503906 260.726562 40.816406 254.714844 39.183594 C 251.03125 38.183594 246.996094 37.585938 242.808594 37.398438 C 238.613281 37.210938 234.273438 37.429688 229.976562 38.0625 C 221.425781 39.324219 213.046875 42.226562 204.667969 45.128906 L 204.628906 45.140625 C 204.191406 45.316406 203.980469 45.8125 204.15625 46.246094 C 204.332031 46.683594 204.828125 46.898438 205.261719 46.722656 C 213.539062 43.855469 221.816406 40.992188 230.222656 39.753906 C 234.421875 39.132812 238.65625 38.914062 242.734375 39.101562 C 246.789062 39.28125 250.699219 39.863281 254.277344 40.832031 C 260.105469 42.414062 265.078125 45.058594 269.847656 47.585938 C 270.890625 48.140625 271.921875 48.6875 273.125 49.308594 C 276.070312 50.820312 278.996094 52.191406 281.894531 53.320312 C 284.816406 54.460938 287.71875 55.359375 290.589844 55.917969 C 293.476562 56.480469 296.339844 56.703125 299.382812 56.519531 C 302.417969 56.335938 305.621094 55.746094 309.210938 54.683594 C 312.441406 53.726562 315.964844 52.390625 319.664062 50.988281 C 324.082031 49.3125 328.757812 47.539062 333.445312 46.21875 C 337.839844 44.984375 342.253906 44.144531 346.417969 43.820312 C 350.316406 43.511719 353.988281 43.652344 357.210938 44.335938 C 363.835938 45.738281 368.683594 49.472656 373.53125 53.210938 Z M 373.542969 53.21875 " fill-opacity="1" fill-rule="nonzero"/><path fill="#000000" d="M 336.683594 28.347656 C 337.472656 32.0625 339.3125 35.148438 342.210938 37.605469 C 345.007812 39.976562 348.785156 41.753906 353.542969 42.941406 L 353.710938 43.070312 C 353.894531 43.207031 354.152344 43.171875 354.292969 42.988281 C 354.300781 42.980469 354.308594 42.972656 354.3125 42.960938 C 354.378906 42.90625 354.429688 42.828125 354.453125 42.738281 C 354.476562 42.644531 354.464844 42.550781 354.429688 42.46875 C 352.519531 37.925781 350.128906 34.4375 347.253906 32 C 344.355469 29.546875 340.980469 28.160156 337.125 27.847656 C 336.898438 27.828125 336.699219 27.996094 336.679688 28.226562 C 336.675781 28.265625 336.679688 28.308594 336.683594 28.347656 Z M 353.136719 41.585938 C 350.269531 39.390625 347.808594 37.402344 345.757812 35.625 C 343.449219 33.625 341.640625 31.878906 340.324219 30.386719 C 340.171875 30.214844 339.910156 30.203125 339.738281 30.351562 C 339.570312 30.503906 339.550781 30.769531 339.703125 30.941406 C 341.035156 32.453125 342.875 34.222656 345.214844 36.25 C 347.09375 37.875 349.285156 39.660156 351.789062 41.601562 C 348.070312 40.46875 345.054688 38.929688 342.746094 36.972656 C 340.140625 34.761719 338.433594 32.011719 337.625 28.730469 C 341.070312 29.113281 344.101562 30.414062 346.71875 32.632812 C 349.234375 34.765625 351.371094 37.75 353.136719 41.585938 Z M 353.136719 41.585938 " fill-opacity="1" fill-rule="nonzero"/><path fill="#000000" d="M 311.507812 37.742188 C 313.523438 40.960938 316.3125 43.222656 319.878906 44.53125 C 323.320312 45.792969 327.476562 46.160156 332.351562 45.632812 L 332.550781 45.695312 C 332.769531 45.761719 333.003906 45.636719 333.070312 45.417969 C 333.074219 45.40625 333.078125 45.394531 333.078125 45.382812 C 333.125 45.308594 333.144531 45.21875 333.136719 45.125 C 333.125 45.03125 333.082031 44.945312 333.019531 44.882812 C 329.667969 41.277344 326.222656 38.824219 322.6875 37.527344 C 319.125 36.222656 315.480469 36.089844 311.753906 37.121094 C 311.53125 37.183594 311.402344 37.410156 311.460938 37.632812 C 311.472656 37.671875 311.488281 37.710938 311.507812 37.742188 Z M 331.503906 44.5 C 328.054688 43.425781 325.066406 42.40625 322.527344 41.445312 C 319.671875 40.367188 317.375 39.355469 315.628906 38.40625 C 315.425781 38.296875 315.175781 38.371094 315.066406 38.574219 C 314.957031 38.777344 315.035156 39.03125 315.238281 39.136719 C 317.007812 40.097656 319.339844 41.125 322.230469 42.222656 C 324.554688 43.101562 327.222656 44.019531 330.242188 44.976562 C 326.363281 45.199219 323.003906 44.792969 320.164062 43.753906 C 316.957031 42.574219 314.410156 40.585938 312.523438 37.78125 C 315.890625 36.953125 319.183594 37.128906 322.402344 38.308594 C 325.496094 39.441406 328.53125 41.507812 331.503906 44.5 Z M 331.503906 44.5 " fill-opacity="1" fill-rule="nonzero"/><path fill="#000000" d="M 286.796875 44.625 C 288.417969 48.058594 290.921875 50.632812 294.308594 52.355469 C 297.578125 54.011719 301.660156 54.867188 306.5625 54.921875 L 306.757812 55.007812 C 306.96875 55.101562 307.210938 55.003906 307.304688 54.796875 C 307.308594 54.785156 307.3125 54.773438 307.316406 54.761719 C 307.371094 54.691406 307.402344 54.605469 307.402344 54.511719 C 307.402344 54.417969 307.371094 54.328125 307.316406 54.257812 C 304.414062 50.28125 301.28125 47.441406 297.921875 45.734375 C 294.539062 44.015625 290.9375 43.449219 287.109375 44.035156 C 286.886719 44.070312 286.730469 44.28125 286.765625 44.507812 C 286.769531 44.550781 286.78125 44.589844 286.796875 44.625 Z M 305.855469 53.695312 C 302.558594 52.222656 299.707031 50.859375 297.304688 49.605469 C 294.597656 48.195312 292.433594 46.917969 290.808594 45.769531 C 290.621094 45.636719 290.363281 45.683594 290.234375 45.871094 C 290.101562 46.058594 290.148438 46.316406 290.335938 46.449219 C 291.976562 47.613281 294.171875 48.910156 296.917969 50.339844 C 299.121094 51.488281 301.664062 52.714844 304.550781 54.019531 C 300.667969 53.785156 297.378906 52.984375 294.683594 51.613281 C 291.636719 50.066406 289.34375 47.789062 287.800781 44.78125 C 291.242188 44.355469 294.492188 44.921875 297.546875 46.472656 C 300.488281 47.964844 303.257812 50.375 305.855469 53.695312 Z M 305.855469 53.695312 " fill-opacity="1" fill-rule="nonzero"/><path fill="#000000" d="M 257.519531 26.878906 C 257 30.640625 257.6875 34.171875 259.585938 37.46875 C 261.410156 40.648438 264.363281 43.605469 268.4375 46.339844 L 268.554688 46.519531 C 268.675781 46.710938 268.933594 46.765625 269.125 46.640625 C 269.136719 46.632812 269.144531 46.625 269.15625 46.621094 C 269.238281 46.589844 269.3125 46.535156 269.363281 46.457031 C 269.417969 46.375 269.4375 46.285156 269.429688 46.199219 C 269.171875 41.277344 268.101562 37.179688 266.222656 33.910156 C 264.332031 30.617188 261.621094 28.167969 258.101562 26.558594 C 257.894531 26.464844 257.648438 26.554688 257.554688 26.765625 C 257.535156 26.800781 257.523438 26.839844 257.519531 26.878906 Z M 268.511719 44.925781 C 266.558594 41.882812 264.917969 39.179688 263.589844 36.808594 C 262.09375 34.144531 260.980469 31.886719 260.25 30.039062 C 260.167969 29.824219 259.925781 29.71875 259.710938 29.804688 C 259.5 29.890625 259.394531 30.132812 259.480469 30.347656 C 260.222656 32.222656 261.351562 34.511719 262.867188 37.214844 C 264.085938 39.382812 265.542969 41.804688 267.242188 44.480469 C 264.125 42.15625 261.808594 39.679688 260.300781 37.054688 C 258.597656 34.085938 257.921875 30.921875 258.273438 27.558594 C 261.382812 29.09375 263.792969 31.347656 265.503906 34.320312 C 267.148438 37.183594 268.152344 40.71875 268.511719 44.925781 Z M 268.511719 44.925781 " fill-opacity="1" fill-rule="nonzero"/><path fill="#000000" d="M 221.175781 26.484375 C 222.425781 30.066406 224.644531 32.894531 227.832031 34.960938 C 230.90625 36.957031 234.878906 38.238281 239.75 38.808594 L 239.933594 38.914062 C 240.132812 39.03125 240.386719 38.960938 240.5 38.761719 C 240.503906 38.75 240.511719 38.742188 240.515625 38.730469 C 240.574219 38.667969 240.617188 38.582031 240.625 38.488281 C 240.636719 38.394531 240.613281 38.304688 240.570312 38.226562 C 238.097656 33.964844 235.28125 30.808594 232.121094 28.757812 C 228.9375 26.695312 225.414062 25.75 221.546875 25.933594 C 221.320312 25.941406 221.140625 26.136719 221.152344 26.363281 C 221.15625 26.40625 221.164062 26.445312 221.175781 26.484375 Z M 239.171875 37.515625 C 236.050781 35.703125 233.359375 34.046875 231.097656 32.542969 C 228.554688 30.859375 226.535156 29.359375 225.042969 28.042969 C 224.871094 27.894531 224.609375 27.910156 224.460938 28.085938 C 224.308594 28.257812 224.328125 28.519531 224.5 28.671875 C 226.011719 30.003906 228.058594 31.523438 230.640625 33.234375 C 232.707031 34.605469 235.109375 36.097656 237.839844 37.699219 C 234.007812 37.058594 230.820312 35.910156 228.28125 34.265625 C 225.414062 32.40625 223.371094 29.898438 222.15625 26.742188 C 225.621094 26.6875 228.792969 27.589844 231.671875 29.457031 C 234.4375 31.25 236.9375 33.9375 239.171875 37.515625 Z M 239.171875 37.515625 " fill-opacity="1" fill-rule="nonzero"/><path fill="#000000" d="M 328.339844 59.785156 C 328.640625 56.003906 330.066406 52.703125 332.625 49.890625 C 335.089844 47.175781 338.605469 44.921875 343.171875 43.128906 L 343.320312 42.980469 C 343.484375 42.820312 343.746094 42.820312 343.910156 42.984375 C 343.917969 42.992188 343.925781 43.003906 343.933594 43.011719 C 344.007812 43.058594 344.066406 43.128906 344.101562 43.214844 C 344.136719 43.304688 344.136719 43.398438 344.109375 43.480469 C 342.804688 48.234375 340.882812 52.003906 338.347656 54.796875 C 335.792969 57.605469 332.625 59.414062 328.839844 60.226562 C 328.617188 60.273438 328.394531 60.132812 328.347656 59.90625 C 328.339844 59.867188 328.335938 59.824219 328.339844 59.785156 Z M 342.941406 44.527344 C 340.382812 47.078125 338.203125 49.367188 336.394531 51.394531 C 334.367188 53.675781 332.796875 55.640625 331.683594 57.289062 C 331.554688 57.480469 331.296875 57.53125 331.109375 57.402344 C 330.917969 57.273438 330.871094 57.015625 331 56.824219 C 332.125 55.152344 333.71875 53.15625 335.777344 50.84375 C 337.429688 48.988281 339.371094 46.9375 341.609375 44.6875 C 338.0625 46.289062 335.273438 48.210938 333.238281 50.449219 C 330.9375 52.976562 329.597656 55.925781 329.222656 59.285156 C 332.585938 58.457031 335.425781 56.773438 337.734375 54.238281 C 339.953125 51.796875 341.6875 48.558594 342.941406 44.527344 Z M 342.941406 44.527344 " fill-opacity="1" fill-rule="nonzero"/><g clip-path="url(#73599be3f6)"><path fill="#000000" d="M 303.773438 67.09375 C 304.074219 63.308594 305.503906 60.011719 308.058594 57.195312 C 310.527344 54.484375 314.042969 52.230469 318.605469 50.4375 L 318.757812 50.289062 C 318.921875 50.125 319.183594 50.128906 319.34375 50.292969 C 319.351562 50.300781 319.363281 50.308594 319.367188 50.316406 C 319.441406 50.363281 319.503906 50.433594 319.535156 50.523438 C 319.570312 50.609375 319.570312 50.703125 319.546875 50.789062 C 318.238281 55.542969 316.316406 59.3125 313.78125 62.101562 C 311.226562 64.910156 308.058594 66.722656 304.277344 67.535156 C 304.050781 67.582031 303.832031 67.4375 303.785156 67.214844 C 303.773438 67.175781 303.773438 67.132812 303.773438 67.09375 Z M 318.378906 51.835938 C 315.820312 54.382812 313.636719 56.671875 311.832031 58.703125 C 309.800781 60.984375 308.230469 62.949219 307.121094 64.597656 C 306.992188 64.789062 306.734375 64.835938 306.542969 64.707031 C 306.355469 64.578125 306.304688 64.320312 306.433594 64.132812 C 307.558594 62.457031 309.152344 60.464844 311.210938 58.152344 C 312.863281 56.296875 314.808594 54.246094 317.042969 51.996094 C 313.5 53.597656 310.707031 55.515625 308.671875 57.753906 C 306.371094 60.285156 305.035156 63.234375 304.65625 66.59375 C 308.023438 65.765625 310.859375 64.082031 313.167969 61.542969 C 315.390625 59.101562 317.125 55.867188 318.378906 51.835938 Z M 318.378906 51.835938 " fill-opacity="1" fill-rule="nonzero"/></g><path fill="#000000" d="M 256.152344 54.359375 C 258.773438 51.617188 261.964844 49.972656 265.71875 49.417969 C 269.34375 48.878906 273.488281 49.367188 278.15625 50.875 L 278.367188 50.855469 C 278.59375 50.832031 278.796875 51.003906 278.816406 51.230469 C 278.820312 51.242188 278.820312 51.253906 278.820312 51.265625 C 278.847656 51.347656 278.851562 51.441406 278.820312 51.53125 C 278.789062 51.621094 278.734375 51.695312 278.660156 51.742188 C 274.648438 54.59375 270.777344 56.292969 267.050781 56.84375 C 263.300781 57.398438 259.703125 56.789062 256.261719 55.015625 C 256.058594 54.910156 255.980469 54.660156 256.082031 54.457031 C 256.101562 54.417969 256.125 54.386719 256.152344 54.359375 Z M 277.09375 51.8125 C 273.503906 52.164062 270.371094 52.550781 267.691406 52.972656 C 264.675781 53.449219 262.21875 53.976562 260.320312 54.546875 C 260.097656 54.613281 259.867188 54.488281 259.804688 54.269531 C 259.738281 54.050781 259.863281 53.816406 260.082031 53.753906 C 262.011719 53.171875 264.503906 52.640625 267.558594 52.15625 C 270.007812 51.769531 272.808594 51.414062 275.960938 51.089844 C 272.207031 50.078125 268.832031 49.796875 265.84375 50.238281 C 262.460938 50.734375 259.566406 52.167969 257.152344 54.53125 C 260.28125 56.023438 263.539062 56.523438 266.929688 56.023438 C 270.191406 55.539062 273.578125 54.136719 277.09375 51.8125 Z M 277.09375 51.8125 " fill-opacity="1" fill-rule="nonzero"/><path fill="#000000" d="M 233.308594 53.128906 C 234.28125 49.460938 236.28125 46.472656 239.300781 44.167969 C 242.214844 41.945312 246.078125 40.363281 250.890625 39.421875 L 251.066406 39.304688 C 251.253906 39.171875 251.515625 39.222656 251.640625 39.414062 C 251.648438 39.421875 251.65625 39.433594 251.660156 39.445312 C 251.726562 39.503906 251.773438 39.582031 251.789062 39.675781 C 251.808594 39.769531 251.792969 39.859375 251.753906 39.9375 C 249.613281 44.378906 247.042969 47.738281 244.046875 50.027344 C 241.03125 52.328125 237.589844 53.535156 233.722656 53.652344 C 233.492188 53.660156 233.300781 53.480469 233.292969 53.25 C 233.292969 53.207031 233.296875 53.167969 233.308594 53.128906 Z M 250.414062 40.757812 C 247.441406 42.804688 244.882812 44.660156 242.742188 46.332031 C 240.332031 48.207031 238.4375 49.855469 237.046875 51.277344 C 236.886719 51.441406 236.625 51.445312 236.460938 51.285156 C 236.296875 51.121094 236.296875 50.859375 236.457031 50.695312 C 237.863281 49.253906 239.789062 47.578125 242.230469 45.675781 C 244.191406 44.148438 246.46875 42.480469 249.074219 40.671875 C 245.296875 41.609375 242.207031 42.992188 239.804688 44.828125 C 237.085938 46.902344 235.238281 49.558594 234.265625 52.796875 C 237.726562 52.589844 240.820312 51.445312 243.546875 49.367188 C 246.167969 47.367188 248.457031 44.496094 250.414062 40.757812 Z M 250.414062 40.757812 " fill-opacity="1" fill-rule="nonzero"/><path fill="#000000" d="M 353.902344 42.386719 C 354.210938 42.269531 354.554688 42.425781 354.671875 42.734375 C 354.789062 43.042969 354.632812 43.386719 354.328125 43.503906 L 354.285156 43.519531 C 352.777344 44.121094 351.273438 44.730469 349.976562 45.867188 C 349.316406 46.441406 348.699219 47.160156 348.097656 47.957031 C 347.464844 48.789062 346.878906 49.664062 346.292969 50.539062 C 346.109375 50.8125 345.742188 50.882812 345.46875 50.699219 C 345.195312 50.519531 345.125 50.148438 345.308594 49.875 C 345.921875 48.957031 346.535156 48.039062 347.148438 47.230469 C 347.792969 46.378906 348.464844 45.597656 349.195312 44.964844 C 350.636719 43.703125 352.242188 43.054688 353.84375 42.414062 C 353.863281 42.402344 353.882812 42.394531 353.902344 42.386719 Z M 353.902344 42.386719 " fill-opacity="1" fill-rule="nonzero"/><path fill="#000000" d="M 331.691406 45.203125 C 331.972656 45.03125 332.339844 45.117188 332.515625 45.398438 C 332.6875 45.679688 332.601562 46.046875 332.320312 46.222656 L 332.28125 46.242188 C 330.914062 47.121094 329.550781 48 328.488281 49.359375 C 327.949219 50.046875 327.476562 50.871094 327.035156 51.765625 C 326.570312 52.707031 326.15625 53.675781 325.746094 54.644531 C 325.617188 54.945312 325.269531 55.085938 324.96875 54.957031 C 324.664062 54.828125 324.527344 54.480469 324.65625 54.175781 C 325.085938 53.160156 325.515625 52.144531 325.96875 51.234375 C 326.441406 50.273438 326.957031 49.382812 327.550781 48.621094 C 328.730469 47.113281 330.183594 46.171875 331.640625 45.238281 C 331.65625 45.226562 331.675781 45.214844 331.691406 45.203125 Z M 331.691406 45.203125 " fill-opacity="1" fill-rule="nonzero"/><path fill="#000000" d="M 303.863281 54.40625 C 304.1875 54.339844 304.5 54.550781 304.566406 54.875 C 304.632812 55.195312 304.421875 55.511719 304.097656 55.578125 L 304.054688 55.582031 C 302.46875 55.925781 300.882812 56.277344 299.414062 57.179688 C 298.671875 57.636719 297.941406 58.242188 297.214844 58.925781 C 296.453125 59.644531 295.730469 60.40625 295.007812 61.171875 C 294.78125 61.410156 294.40625 61.421875 294.167969 61.195312 C 293.929688 60.96875 293.917969 60.59375 294.144531 60.351562 C 294.902344 59.550781 295.660156 58.75 296.402344 58.054688 C 297.179688 57.320312 297.972656 56.664062 298.792969 56.160156 C 300.425781 55.15625 302.113281 54.785156 303.804688 54.417969 C 303.824219 54.414062 303.84375 54.410156 303.863281 54.40625 Z M 303.863281 54.40625 " fill-opacity="1" fill-rule="nonzero"/><path fill="#000000" d="M 265.449219 43.882812 C 265.78125 43.914062 266.019531 44.207031 265.984375 44.539062 C 265.953125 44.867188 265.660156 45.105469 265.332031 45.070312 L 265.289062 45.066406 C 263.671875 44.929688 262.054688 44.796875 260.386719 45.226562 C 259.542969 45.449219 258.664062 45.8125 257.773438 46.253906 C 256.832031 46.71875 255.917969 47.234375 255.003906 47.753906 C 254.71875 47.914062 254.355469 47.816406 254.195312 47.527344 C 254.035156 47.242188 254.132812 46.878906 254.417969 46.71875 C 255.378906 46.171875 256.339844 45.628906 257.246094 45.179688 C 258.207031 44.707031 259.15625 44.3125 260.089844 44.070312 C 261.945312 43.59375 263.667969 43.730469 265.386719 43.878906 C 265.410156 43.878906 265.429688 43.878906 265.449219 43.882812 Z M 265.449219 43.882812 " fill-opacity="1" fill-rule="nonzero"/><path fill="#000000" d="M 250.816406 39.21875 C 251.097656 39.390625 251.464844 39.300781 251.636719 39.019531 C 251.808594 38.738281 251.722656 38.367188 251.4375 38.195312 L 251.402344 38.175781 C 250.03125 37.308594 248.664062 36.433594 247.59375 35.078125 C 247.046875 34.394531 246.570312 33.570312 246.125 32.683594 C 245.65625 31.742188 245.238281 30.777344 244.820312 29.8125 C 244.691406 29.507812 244.339844 29.371094 244.039062 29.5 C 243.742188 29.628906 243.601562 29.980469 243.730469 30.28125 C 244.167969 31.296875 244.605469 32.3125 245.0625 33.21875 C 245.539062 34.175781 246.058594 35.066406 246.660156 35.824219 C 247.847656 37.328125 249.304688 38.257812 250.765625 39.183594 C 250.78125 39.195312 250.800781 39.207031 250.816406 39.21875 Z M 250.816406 39.21875 " fill-opacity="1" fill-rule="nonzero"/><path fill="#000000" d="M 318.382812 50.96875 C 318.714844 50.941406 318.953125 50.648438 318.925781 50.320312 C 318.894531 49.992188 318.605469 49.75 318.277344 49.777344 L 318.234375 49.785156 C 316.617188 49.90625 314.996094 50.019531 313.332031 49.574219 C 312.488281 49.347656 311.617188 48.972656 310.730469 48.523438 C 309.792969 48.054688 308.882812 47.523438 307.976562 46.996094 C 307.691406 46.832031 307.328125 46.929688 307.164062 47.214844 C 307 47.5 307.097656 47.863281 307.378906 48.027344 C 308.332031 48.582031 309.289062 49.132812 310.195312 49.589844 C 311.148438 50.074219 312.09375 50.476562 313.027344 50.730469 C 314.875 51.222656 316.597656 51.101562 318.320312 50.972656 C 318.34375 50.972656 318.363281 50.972656 318.382812 50.96875 Z M 318.382812 50.96875 " fill-opacity="1" fill-rule="nonzero"/><path fill="#000000" d="M 345.003906 43.710938 C 345.332031 43.746094 345.625 43.507812 345.660156 43.179688 C 345.695312 42.851562 345.460938 42.558594 345.132812 42.519531 L 345.089844 42.519531 C 343.480469 42.316406 341.871094 42.109375 340.328125 41.339844 C 339.546875 40.953125 338.761719 40.410156 337.980469 39.796875 C 337.15625 39.148438 336.371094 38.449219 335.582031 37.753906 C 335.335938 37.535156 334.960938 37.558594 334.746094 37.804688 C 334.527344 38.050781 334.550781 38.429688 334.796875 38.644531 C 335.625 39.378906 336.449219 40.109375 337.246094 40.734375 C 338.085938 41.398438 338.933594 41.980469 339.796875 42.414062 C 341.511719 43.265625 343.226562 43.488281 344.941406 43.699219 C 344.960938 43.707031 344.980469 43.710938 345.003906 43.710938 Z M 345.003906 43.710938 " fill-opacity="1" fill-rule="nonzero"/><path fill="#000000" d="M 278.050781 51.007812 C 278.246094 51.269531 278.621094 51.324219 278.886719 51.125 C 279.148438 50.925781 279.203125 50.550781 279.003906 50.289062 L 278.976562 50.253906 C 278.023438 48.9375 277.074219 47.621094 276.582031 45.964844 C 276.328125 45.128906 276.1875 44.1875 276.101562 43.195312 C 276.011719 42.148438 275.980469 41.097656 275.953125 40.042969 C 275.945312 39.714844 275.671875 39.457031 275.339844 39.464844 C 275.015625 39.476562 274.753906 39.75 274.765625 40.078125 C 274.796875 41.183594 274.828125 42.285156 274.914062 43.300781 C 275.007812 44.363281 275.160156 45.386719 275.4375 46.3125 C 275.988281 48.148438 277 49.554688 278.015625 50.957031 C 278.023438 50.972656 278.035156 50.992188 278.050781 51.007812 Z M 278.050781 51.007812 " fill-opacity="1" fill-rule="nonzero"/><path fill="#000000" d="M 336.808594 37.988281 C 336.808594 38.238281 336.761719 38.476562 336.664062 38.703125 C 336.570312 38.933594 336.4375 39.136719 336.261719 39.308594 C 336.085938 39.484375 335.886719 39.621094 335.65625 39.714844 C 335.429688 39.808594 335.191406 39.855469 334.945312 39.855469 C 334.695312 39.855469 334.457031 39.808594 334.230469 39.714844 C 334.003906 39.621094 333.800781 39.484375 333.625 39.308594 C 333.449219 39.136719 333.316406 38.933594 333.222656 38.703125 C 333.128906 38.476562 333.078125 38.238281 333.078125 37.988281 C 333.078125 37.742188 333.128906 37.503906 333.222656 37.273438 C 333.316406 37.046875 333.449219 36.84375 333.625 36.667969 C 333.800781 36.492188 334.003906 36.359375 334.230469 36.261719 C 334.457031 36.167969 334.695312 36.121094 334.945312 36.121094 C 335.191406 36.121094 335.429688 36.167969 335.65625 36.261719 C 335.886719 36.359375 336.085938 36.492188 336.261719 36.667969 C 336.4375 36.84375 336.570312 37.046875 336.664062 37.273438 C 336.761719 37.503906 336.808594 37.742188 336.808594 37.988281 Z M 336.808594 37.988281 " fill-opacity="1" fill-rule="nonzero"/><path fill="#000000" d="M 347.777344 50.792969 C 347.777344 51.039062 347.730469 51.277344 347.636719 51.507812 C 347.542969 51.734375 347.40625 51.9375 347.230469 52.113281 C 347.058594 52.289062 346.855469 52.421875 346.628906 52.515625 C 346.398438 52.613281 346.160156 52.660156 345.914062 52.660156 C 345.667969 52.660156 345.429688 52.613281 345.199219 52.515625 C 344.972656 52.421875 344.769531 52.289062 344.597656 52.113281 C 344.421875 51.9375 344.285156 51.734375 344.191406 51.507812 C 344.097656 51.277344 344.050781 51.039062 344.050781 50.792969 C 344.050781 50.542969 344.097656 50.304688 344.191406 50.078125 C 344.285156 49.847656 344.421875 49.644531 344.597656 49.46875 C 344.769531 49.296875 344.972656 49.160156 345.199219 49.066406 C 345.429688 48.96875 345.667969 48.921875 345.914062 48.921875 C 346.160156 48.921875 346.398438 48.96875 346.628906 49.066406 C 346.855469 49.160156 347.058594 49.296875 347.230469 49.46875 C 347.40625 49.644531 347.542969 49.847656 347.636719 50.078125 C 347.730469 50.304688 347.777344 50.542969 347.777344 50.792969 Z M 347.777344 50.792969 " fill-opacity="1" fill-rule="nonzero"/><path fill="#000000" d="M 326.832031 54.957031 C 326.832031 55.207031 326.785156 55.445312 326.6875 55.671875 C 326.59375 55.902344 326.460938 56.105469 326.285156 56.277344 C 326.109375 56.453125 325.910156 56.589844 325.679688 56.683594 C 325.453125 56.777344 325.214844 56.824219 324.96875 56.824219 C 324.71875 56.824219 324.480469 56.777344 324.253906 56.683594 C 324.027344 56.589844 323.824219 56.453125 323.648438 56.277344 C 323.472656 56.105469 323.339844 55.902344 323.246094 55.671875 C 323.152344 55.445312 323.101562 55.207031 323.101562 54.957031 C 323.101562 54.710938 323.152344 54.472656 323.246094 54.242188 C 323.339844 54.015625 323.472656 53.8125 323.648438 53.636719 C 323.824219 53.460938 324.023438 53.328125 324.253906 53.230469 C 324.480469 53.136719 324.71875 53.089844 324.96875 53.089844 C 325.214844 53.089844 325.453125 53.136719 325.679688 53.230469 C 325.910156 53.328125 326.109375 53.460938 326.285156 53.636719 C 326.460938 53.8125 326.59375 54.015625 326.6875 54.242188 C 326.785156 54.472656 326.832031 54.710938 326.832031 54.957031 Z M 326.832031 54.957031 " fill-opacity="1" fill-rule="nonzero"/><path fill="#000000" d="M 308.96875 47.667969 C 308.96875 47.914062 308.921875 48.152344 308.828125 48.382812 C 308.730469 48.609375 308.597656 48.8125 308.421875 48.988281 C 308.246094 49.164062 308.046875 49.296875 307.816406 49.390625 C 307.589844 49.488281 307.351562 49.535156 307.105469 49.535156 C 306.859375 49.535156 306.621094 49.488281 306.390625 49.390625 C 306.164062 49.296875 305.960938 49.164062 305.785156 48.988281 C 305.613281 48.8125 305.476562 48.609375 305.382812 48.382812 C 305.289062 48.152344 305.242188 47.914062 305.242188 47.667969 C 305.242188 47.417969 305.289062 47.179688 305.382812 46.953125 C 305.476562 46.722656 305.613281 46.519531 305.785156 46.34375 C 305.960938 46.171875 306.164062 46.035156 306.390625 45.941406 C 306.621094 45.84375 306.859375 45.796875 307.105469 45.796875 C 307.351562 45.796875 307.589844 45.84375 307.816406 45.941406 C 308.046875 46.035156 308.246094 46.171875 308.421875 46.34375 C 308.597656 46.519531 308.730469 46.722656 308.828125 46.953125 C 308.921875 47.179688 308.96875 47.417969 308.96875 47.667969 Z M 308.96875 47.667969 " fill-opacity="1" fill-rule="nonzero"/><path fill="#000000" d="M 296.03125 61.195312 C 296.03125 61.441406 295.984375 61.679688 295.890625 61.910156 C 295.792969 62.136719 295.660156 62.339844 295.484375 62.515625 C 295.308594 62.691406 295.109375 62.824219 294.878906 62.921875 C 294.652344 63.015625 294.414062 63.0625 294.167969 63.0625 C 293.917969 63.0625 293.683594 63.015625 293.453125 62.921875 C 293.226562 62.824219 293.023438 62.691406 292.847656 62.515625 C 292.675781 62.339844 292.539062 62.136719 292.445312 61.910156 C 292.351562 61.679688 292.304688 61.441406 292.304688 61.195312 C 292.304688 60.945312 292.351562 60.707031 292.445312 60.480469 C 292.539062 60.25 292.675781 60.046875 292.847656 59.875 C 293.023438 59.699219 293.226562 59.5625 293.453125 59.46875 C 293.683594 59.375 293.917969 59.328125 294.167969 59.328125 C 294.414062 59.328125 294.652344 59.375 294.878906 59.46875 C 295.109375 59.5625 295.308594 59.699219 295.484375 59.875 C 295.660156 60.046875 295.792969 60.25 295.890625 60.480469 C 295.984375 60.707031 296.03125 60.945312 296.03125 61.195312 Z M 296.03125 61.195312 " fill-opacity="1" fill-rule="nonzero"/><path fill="#000000" d="M 277.207031 39.464844 C 277.207031 39.714844 277.15625 39.953125 277.0625 40.179688 C 276.96875 40.410156 276.835938 40.613281 276.660156 40.789062 C 276.484375 40.960938 276.28125 41.097656 276.054688 41.191406 C 275.828125 41.289062 275.589844 41.335938 275.339844 41.335938 C 275.09375 41.335938 274.855469 41.289062 274.628906 41.191406 C 274.398438 41.097656 274.199219 40.960938 274.023438 40.789062 C 273.847656 40.613281 273.714844 40.410156 273.621094 40.179688 C 273.523438 39.953125 273.476562 39.714844 273.476562 39.464844 C 273.476562 39.21875 273.523438 38.980469 273.621094 38.75 C 273.714844 38.523438 273.847656 38.320312 274.023438 38.144531 C 274.199219 37.96875 274.398438 37.835938 274.628906 37.742188 C 274.855469 37.644531 275.09375 37.597656 275.339844 37.597656 C 275.589844 37.597656 275.828125 37.644531 276.054688 37.742188 C 276.28125 37.835938 276.484375 37.96875 276.660156 38.144531 C 276.835938 38.320312 276.96875 38.523438 277.0625 38.75 C 277.15625 38.980469 277.207031 39.21875 277.207031 39.464844 Z M 277.207031 39.464844 " fill-opacity="1" fill-rule="nonzero"/><path fill="#000000" d="M 256.058594 47.527344 C 256.058594 47.777344 256.011719 48.015625 255.917969 48.242188 C 255.820312 48.472656 255.6875 48.675781 255.511719 48.847656 C 255.335938 49.023438 255.136719 49.160156 254.90625 49.253906 C 254.679688 49.347656 254.441406 49.394531 254.195312 49.394531 C 253.949219 49.394531 253.710938 49.347656 253.480469 49.253906 C 253.253906 49.160156 253.050781 49.023438 252.875 48.847656 C 252.703125 48.675781 252.566406 48.472656 252.472656 48.242188 C 252.378906 48.015625 252.332031 47.777344 252.332031 47.527344 C 252.332031 47.28125 252.378906 47.042969 252.472656 46.8125 C 252.566406 46.585938 252.703125 46.382812 252.875 46.207031 C 253.050781 46.03125 253.253906 45.898438 253.480469 45.800781 C 253.710938 45.707031 253.949219 45.660156 254.195312 45.660156 C 254.441406 45.660156 254.679688 45.707031 254.90625 45.800781 C 255.136719 45.898438 255.335938 46.03125 255.511719 46.207031 C 255.6875 46.382812 255.820312 46.585938 255.917969 46.8125 C 256.011719 47.042969 256.058594 47.28125 256.058594 47.527344 Z M 256.058594 47.527344 " fill-opacity="1" fill-rule="nonzero"/><path fill="#000000" d="M 245.90625 29.5 C 245.90625 29.746094 245.855469 29.984375 245.761719 30.214844 C 245.667969 30.445312 245.53125 30.644531 245.359375 30.820312 C 245.183594 30.996094 244.980469 31.132812 244.753906 31.226562 C 244.523438 31.320312 244.289062 31.367188 244.039062 31.367188 C 243.792969 31.367188 243.554688 31.320312 243.328125 31.226562 C 243.097656 31.132812 242.898438 30.996094 242.722656 30.820312 C 242.546875 30.644531 242.414062 30.445312 242.316406 30.214844 C 242.222656 29.984375 242.175781 29.746094 242.175781 29.5 C 242.175781 29.253906 242.222656 29.015625 242.316406 28.785156 C 242.414062 28.554688 242.546875 28.355469 242.722656 28.179688 C 242.898438 28.003906 243.097656 27.871094 243.328125 27.773438 C 243.554688 27.679688 243.792969 27.632812 244.039062 27.632812 C 244.289062 27.632812 244.523438 27.679688 244.753906 27.773438 C 244.980469 27.871094 245.183594 28.003906 245.359375 28.179688 C 245.53125 28.355469 245.667969 28.554688 245.761719 28.785156 C 245.855469 29.015625 245.90625 29.253906 245.90625 29.5 Z M 245.90625 29.5 " fill-opacity="1" fill-rule="nonzero"/><g clip-path="url(#cabe7aa9a6)"><path fill="#000000" d="M 185.808594 35.261719 C 186.765625 35.261719 187.628906 35.652344 188.257812 36.28125 C 188.882812 36.90625 189.269531 37.777344 189.269531 38.734375 C 189.269531 39.691406 188.882812 40.5625 188.257812 41.191406 C 187.628906 41.820312 186.765625 42.207031 185.808594 42.207031 C 184.851562 42.207031 183.984375 41.820312 183.355469 41.191406 C 182.730469 40.5625 182.339844 39.691406 182.339844 38.734375 C 182.339844 37.777344 182.730469 36.90625 183.355469 36.28125 C 183.984375 35.652344 184.851562 35.261719 185.808594 35.261719 Z M 177.742188 34.179688 C 177.5625 34.011719 177.398438 33.84375 177.246094 33.671875 C 176.804688 33.183594 176.445312 32.675781 176.1875 32.140625 C 175.933594 31.613281 175.785156 31.066406 175.726562 30.519531 C 175.664062 29.941406 175.699219 29.363281 175.820312 28.808594 C 175.941406 28.261719 176.144531 27.730469 176.417969 27.25 C 176.6875 26.78125 177.027344 26.355469 177.433594 26 C 177.851562 25.636719 178.332031 25.355469 178.855469 25.171875 C 179.363281 24.992188 179.914062 24.902344 180.472656 24.921875 C 181.027344 24.941406 181.589844 25.066406 182.113281 25.273438 C 182.652344 25.484375 183.160156 25.785156 183.59375 26.148438 C 184.019531 26.503906 184.371094 26.921875 184.664062 27.347656 C 184.953125 27.761719 185.175781 28.1875 185.355469 28.566406 L 185.355469 28.570312 L 185.359375 28.566406 C 185.503906 28.878906 185.617188 29.167969 185.710938 29.457031 C 185.769531 29.222656 185.832031 28.992188 185.902344 28.769531 C 186.101562 28.140625 186.363281 27.574219 186.691406 27.089844 C 187.023438 26.605469 187.421875 26.203125 187.863281 25.878906 C 188.328125 25.539062 188.847656 25.28125 189.394531 25.105469 C 189.925781 24.9375 190.484375 24.847656 191.039062 24.84375 C 191.582031 24.84375 192.117188 24.925781 192.625 25.101562 C 193.148438 25.28125 193.632812 25.558594 194.050781 25.917969 C 194.464844 26.273438 194.816406 26.703125 195.078125 27.199219 C 195.335938 27.6875 195.507812 28.238281 195.59375 28.804688 C 195.679688 29.371094 195.671875 29.960938 195.574219 30.519531 C 195.480469 31.066406 195.296875 31.582031 195.074219 32.050781 C 194.863281 32.503906 194.609375 32.910156 194.367188 33.257812 C 194.164062 33.550781 193.972656 33.792969 193.777344 34.011719 C 194.011719 33.941406 194.238281 33.882812 194.464844 33.832031 C 195.109375 33.691406 195.726562 33.636719 196.3125 33.679688 C 196.894531 33.726562 197.441406 33.867188 197.945312 34.089844 C 198.476562 34.324219 198.957031 34.648438 199.378906 35.03125 C 199.789062 35.410156 200.148438 35.847656 200.425781 36.328125 C 200.699219 36.800781 200.898438 37.308594 201 37.835938 C 201.105469 38.375 201.105469 38.933594 201.003906 39.480469 C 200.90625 40.015625 200.707031 40.539062 200.410156 41.011719 C 200.117188 41.480469 199.726562 41.90625 199.285156 42.261719 C 198.832031 42.621094 198.320312 42.910156 197.789062 43.105469 C 197.265625 43.296875 196.726562 43.398438 196.214844 43.4375 C 195.710938 43.480469 195.234375 43.464844 194.816406 43.429688 C 194.472656 43.398438 194.167969 43.351562 193.875 43.292969 C 194.050781 43.457031 194.214844 43.628906 194.371094 43.796875 C 194.8125 44.285156 195.167969 44.792969 195.425781 45.328125 C 195.679688 45.855469 195.828125 46.402344 195.886719 46.949219 C 195.953125 47.527344 195.914062 48.105469 195.792969 48.660156 C 195.671875 49.207031 195.472656 49.738281 195.195312 50.21875 C 194.929688 50.691406 194.585938 51.117188 194.179688 51.46875 C 193.761719 51.832031 193.28125 52.113281 192.761719 52.296875 C 192.25 52.480469 191.703125 52.566406 191.140625 52.546875 C 190.585938 52.527344 190.027344 52.402344 189.5 52.195312 C 188.960938 51.984375 188.457031 51.683594 188.019531 51.320312 C 187.597656 50.964844 187.242188 50.546875 186.949219 50.121094 C 186.664062 49.707031 186.4375 49.285156 186.257812 48.902344 C 186.109375 48.582031 185.996094 48.292969 185.902344 48.011719 C 185.847656 48.25 185.78125 48.476562 185.710938 48.699219 C 185.511719 49.328125 185.253906 49.894531 184.921875 50.378906 C 184.589844 50.863281 184.195312 51.265625 183.75 51.589844 C 183.285156 51.933594 182.765625 52.1875 182.21875 52.363281 C 181.6875 52.53125 181.128906 52.621094 180.574219 52.625 C 180.035156 52.625 179.496094 52.542969 178.992188 52.367188 C 178.464844 52.1875 177.980469 51.910156 177.5625 51.550781 C 177.148438 51.195312 176.796875 50.765625 176.535156 50.269531 C 176.277344 49.78125 176.105469 49.230469 176.019531 48.667969 C 175.9375 48.097656 175.941406 47.507812 176.039062 46.953125 C 176.132812 46.402344 176.316406 45.886719 176.539062 45.417969 C 176.753906 44.964844 177.007812 44.558594 177.25 44.210938 C 177.449219 43.921875 177.644531 43.675781 177.835938 43.460938 C 177.605469 43.527344 177.375 43.585938 177.148438 43.636719 C 176.507812 43.777344 175.890625 43.832031 175.300781 43.789062 C 174.71875 43.746094 174.171875 43.601562 173.667969 43.378906 C 173.140625 43.144531 172.660156 42.820312 172.238281 42.4375 C 171.824219 42.0625 171.464844 41.621094 171.1875 41.140625 C 170.914062 40.667969 170.71875 40.160156 170.617188 39.632812 C 170.511719 39.09375 170.507812 38.535156 170.609375 37.992188 C 170.710938 37.453125 170.90625 36.933594 171.203125 36.457031 C 171.496094 35.988281 171.886719 35.5625 172.332031 35.207031 C 172.78125 34.847656 173.292969 34.558594 173.824219 34.363281 C 174.347656 34.171875 174.886719 34.074219 175.398438 34.03125 C 175.902344 33.988281 176.378906 34.003906 176.796875 34.042969 C 177.140625 34.070312 177.449219 34.117188 177.742188 34.179688 Z M 178.121094 32.871094 C 178.507812 33.296875 178.96875 33.710938 179.484375 34.117188 C 179.851562 34.402344 180.242188 34.683594 180.648438 34.957031 C 181.035156 35.21875 181.464844 35.496094 181.914062 35.777344 C 182.167969 35.929688 182.273438 36.253906 182.148438 36.53125 C 182.015625 36.828125 181.664062 36.960938 181.363281 36.828125 L 180.9375 36.632812 C 180.328125 36.359375 179.863281 36.15625 179.492188 36.003906 C 179.125 35.851562 178.8125 35.734375 178.5 35.625 C 178.203125 35.523438 177.929688 35.4375 177.648438 35.375 C 177.367188 35.308594 177.058594 35.257812 176.695312 35.226562 C 176.332031 35.195312 175.917969 35.183594 175.492188 35.21875 C 175.074219 35.25 174.644531 35.328125 174.234375 35.480469 C 173.820312 35.632812 173.421875 35.859375 173.066406 36.136719 C 172.726562 36.410156 172.429688 36.734375 172.210938 37.085938 C 171.992188 37.4375 171.847656 37.816406 171.773438 38.203125 C 171.703125 38.601562 171.703125 39.011719 171.78125 39.410156 C 171.855469 39.804688 172.007812 40.1875 172.214844 40.546875 C 172.429688 40.917969 172.710938 41.261719 173.035156 41.558594 C 173.363281 41.859375 173.738281 42.109375 174.148438 42.289062 C 174.53125 42.460938 174.945312 42.570312 175.390625 42.601562 C 175.859375 42.636719 176.363281 42.589844 176.898438 42.472656 C 177.453125 42.351562 178.039062 42.160156 178.652344 41.910156 C 179.085938 41.734375 179.527344 41.535156 179.964844 41.320312 C 180.390625 41.113281 180.847656 40.878906 181.3125 40.628906 L 181.3125 40.632812 C 181.570312 40.492188 181.898438 40.566406 182.074219 40.808594 C 182.265625 41.078125 182.203125 41.449219 181.933594 41.636719 L 181.554688 41.910156 C 181.035156 42.285156 180.628906 42.585938 180.289062 42.847656 C 179.960938 43.105469 179.703125 43.316406 179.464844 43.523438 C 179.234375 43.722656 179.027344 43.917969 178.824219 44.136719 C 178.617188 44.355469 178.421875 44.597656 178.21875 44.890625 C 178.011719 45.183594 177.796875 45.535156 177.609375 45.925781 C 177.429688 46.304688 177.285156 46.71875 177.207031 47.152344 C 177.132812 47.585938 177.128906 48.046875 177.195312 48.496094 C 177.257812 48.925781 177.390625 49.34375 177.585938 49.710938 C 177.777344 50.078125 178.035156 50.394531 178.332031 50.648438 C 178.640625 50.914062 178.996094 51.117188 179.375 51.25 C 179.753906 51.378906 180.160156 51.441406 180.574219 51.4375 C 181.007812 51.4375 181.445312 51.367188 181.863281 51.234375 C 182.285156 51.097656 182.6875 50.898438 183.050781 50.632812 C 183.386719 50.382812 183.691406 50.078125 183.941406 49.710938 C 184.207031 49.320312 184.417969 48.859375 184.585938 48.335938 C 184.757812 47.796875 184.882812 47.191406 184.976562 46.53125 C 185.039062 46.082031 185.085938 45.597656 185.121094 45.101562 C 185.15625 44.578125 185.179688 44.078125 185.199219 43.589844 C 185.207031 43.292969 185.433594 43.042969 185.734375 43.011719 C 186.058594 42.980469 186.347656 43.222656 186.378906 43.546875 L 186.425781 44.015625 C 186.492188 44.660156 186.546875 45.160156 186.605469 45.582031 C 186.65625 45.984375 186.714844 46.316406 186.773438 46.632812 C 186.835938 46.941406 186.898438 47.222656 186.984375 47.5 C 187.066406 47.78125 187.179688 48.070312 187.332031 48.398438 C 187.484375 48.726562 187.679688 49.089844 187.921875 49.445312 C 188.160156 49.789062 188.441406 50.125 188.78125 50.40625 C 189.121094 50.691406 189.515625 50.925781 189.929688 51.089844 C 190.339844 51.25 190.769531 51.347656 191.183594 51.363281 C 191.589844 51.375 191.988281 51.3125 192.367188 51.179688 C 192.75 51.042969 193.101562 50.835938 193.40625 50.570312 C 193.703125 50.3125 193.960938 49.988281 194.167969 49.628906 C 194.382812 49.253906 194.539062 48.839844 194.632812 48.410156 C 194.726562 47.972656 194.757812 47.519531 194.710938 47.074219 C 194.664062 46.65625 194.550781 46.238281 194.359375 45.839844 C 194.15625 45.417969 193.863281 45.003906 193.492188 44.597656 C 193.109375 44.171875 192.648438 43.757812 192.128906 43.355469 C 191.761719 43.070312 191.371094 42.785156 190.964844 42.511719 C 190.582031 42.25 190.148438 41.972656 189.699219 41.691406 C 189.445312 41.539062 189.339844 41.21875 189.464844 40.941406 C 189.601562 40.640625 189.949219 40.507812 190.25 40.640625 L 190.675781 40.835938 C 191.289062 41.113281 191.75 41.3125 192.121094 41.46875 C 192.488281 41.617188 192.800781 41.738281 193.117188 41.84375 C 193.410156 41.945312 193.683594 42.03125 193.96875 42.097656 C 194.25 42.160156 194.554688 42.210938 194.921875 42.242188 C 195.28125 42.273438 195.695312 42.289062 196.121094 42.253906 C 196.539062 42.21875 196.972656 42.140625 197.382812 41.988281 C 197.796875 41.835938 198.195312 41.609375 198.546875 41.332031 C 198.886719 41.058594 199.183594 40.734375 199.40625 40.382812 C 199.625 40.035156 199.769531 39.65625 199.839844 39.265625 C 199.914062 38.867188 199.910156 38.457031 199.835938 38.058594 C 199.757812 37.667969 199.609375 37.28125 199.402344 36.925781 C 199.183594 36.550781 198.90625 36.207031 198.578125 35.910156 C 198.25 35.609375 197.875 35.359375 197.46875 35.179688 C 197.082031 35.007812 196.667969 34.898438 196.222656 34.867188 C 195.753906 34.832031 195.25 34.878906 194.714844 34.996094 C 194.160156 35.117188 193.574219 35.3125 192.960938 35.558594 C 192.527344 35.734375 192.089844 35.9375 191.648438 36.148438 C 191.222656 36.355469 190.765625 36.59375 190.300781 36.839844 C 190.042969 36.976562 189.714844 36.90625 189.539062 36.660156 C 189.351562 36.390625 189.414062 36.019531 189.679688 35.832031 L 190.058594 35.558594 C 190.578125 35.183594 190.984375 34.882812 191.324219 34.621094 C 191.652344 34.367188 191.914062 34.152344 192.148438 33.945312 C 192.378906 33.746094 192.585938 33.554688 192.792969 33.332031 C 192.996094 33.113281 193.191406 32.871094 193.398438 32.582031 C 193.601562 32.285156 193.820312 31.933594 194.003906 31.542969 C 194.183594 31.164062 194.332031 30.75 194.40625 30.316406 C 194.480469 29.882812 194.484375 29.421875 194.417969 28.972656 C 194.355469 28.542969 194.226562 28.125 194.03125 27.757812 C 193.835938 27.394531 193.582031 27.078125 193.28125 26.820312 C 192.972656 26.558594 192.617188 26.351562 192.238281 26.222656 C 191.859375 26.089844 191.453125 26.027344 191.039062 26.03125 C 190.609375 26.03125 190.167969 26.101562 189.75 26.234375 C 189.332031 26.371094 188.929688 26.570312 188.5625 26.835938 C 188.226562 27.085938 187.921875 27.390625 187.671875 27.761719 C 187.40625 28.148438 187.195312 28.613281 187.027344 29.132812 C 186.855469 29.671875 186.730469 30.277344 186.640625 30.9375 C 186.578125 31.390625 186.527344 31.871094 186.496094 32.367188 C 186.457031 32.890625 186.433594 33.394531 186.414062 33.882812 C 186.410156 34.175781 186.183594 34.429688 185.878906 34.457031 C 185.554688 34.488281 185.265625 34.246094 185.234375 33.921875 L 185.1875 33.457031 C 185.125 32.808594 185.066406 32.308594 185.011719 31.886719 C 184.957031 31.484375 184.902344 31.152344 184.839844 30.835938 C 184.78125 30.527344 184.714844 30.246094 184.632812 29.96875 C 184.550781 29.699219 184.4375 29.410156 184.28125 29.070312 C 184.128906 28.742188 183.9375 28.378906 183.691406 28.023438 C 183.453125 27.679688 183.171875 27.34375 182.832031 27.0625 C 182.492188 26.777344 182.101562 26.546875 181.683594 26.382812 C 181.273438 26.21875 180.847656 26.121094 180.433594 26.109375 C 180.027344 26.09375 179.625 26.160156 179.25 26.292969 C 178.867188 26.425781 178.515625 26.632812 178.210938 26.898438 C 177.910156 27.15625 177.65625 27.480469 177.445312 27.839844 C 177.234375 28.21875 177.074219 28.632812 176.980469 29.0625 C 176.886719 29.496094 176.855469 29.949219 176.90625 30.394531 C 176.949219 30.8125 177.0625 31.230469 177.253906 31.628906 C 177.457031 32.050781 177.75 32.464844 178.121094 32.871094 Z M 187.417969 37.121094 C 187.003906 36.707031 186.4375 36.453125 185.808594 36.453125 C 185.179688 36.453125 184.609375 36.707031 184.195312 37.121094 C 183.785156 37.535156 183.53125 38.105469 183.53125 38.734375 C 183.53125 39.363281 183.785156 39.9375 184.195312 40.347656 C 184.609375 40.761719 185.179688 41.015625 185.808594 41.015625 C 186.4375 41.015625 187.003906 40.761719 187.417969 40.347656 C 187.828125 39.9375 188.085938 39.363281 188.085938 38.734375 C 188.085938 38.105469 187.828125 37.535156 187.417969 37.121094 Z M 187.417969 37.121094 " fill-opacity="1" fill-rule="nonzero"/></g></svg>